HIERARCHY
ROOT pelvis
{
	OFFSET 0.003123 -0.351407 0.012037
	CHANNELS 6 Xposition Yposition Zposition Zrotation Yrotation Xrotation 
	JOINT left_hip
	{
		OFFSET 0.058189 -0.092763 -0.026001
		CHANNELS 3 Zrotation Yrotation Xrotation
		JOINT left_knee
		{
			OFFSET 0.054695 -0.378753 -0.009396
			CHANNELS 3 Zrotation Yrotation Xrotation
			JOINT left_ankle
			{
				OFFSET -0.043453 -0.403059 -0.031876
				CHANNELS 3 Zrotation Yrotation Xrotation
				JOINT left_foot
				{
					OFFSET 0.047257 -0.057997 0.118216
					CHANNELS 3 Zrotation Yrotation Xrotation
					End Site
					{
						OFFSET 0.000000 0.000000 0.000000
					}
				}
			}
		}
	}
	JOINT right_hip
	{
		OFFSET -0.063267 -0.103908 -0.021250
		CHANNELS 3 Zrotation Yrotation Xrotation
		JOINT right_knee
		{
			OFFSET -0.044210 -0.362380 -0.016824
			CHANNELS 3 Zrotation Yrotation Xrotation
			JOINT right_ankle
			{
				OFFSET 0.015417 -0.410728 -0.020192
				CHANNELS 3 Zrotation Yrotation Xrotation
				JOINT right_foot
				{
					OFFSET -0.038812 -0.058328 0.119049
					CHANNELS 3 Zrotation Yrotation Xrotation
					End Site
					{
						OFFSET 0.000000 0.000000 0.000000
					}
				}
			}
		}
	}
	JOINT spine_1
	{
		OFFSET -0.002763 0.109891 -0.027618
		CHANNELS 3 Zrotation Yrotation Xrotation
		JOINT spine_2
		{
			OFFSET 0.009448 0.131853 -0.005940
			CHANNELS 3 Zrotation Yrotation Xrotation
			JOINT spine_3
			{
				OFFSET -0.011330 0.052235 0.028447
				CHANNELS 3 Zrotation Yrotation Xrotation
				JOINT neck
				{
					OFFSET -0.012164 0.165167 -0.031615
					CHANNELS 3 Zrotation Yrotation Xrotation
					JOINT head
					{
						OFFSET 0.024783 0.160452 0.020737
						CHANNELS 3 Zrotation Yrotation Xrotation
						End Site
						{
							OFFSET 0.000000 0.000000 0.000000
						}
					}
				}
				JOINT left_collar
				{
					OFFSET 0.046364 0.084944 -0.007220
					CHANNELS 3 Zrotation Yrotation Xrotation
					JOINT left_shoulder
					{
						OFFSET 0.119239 0.057728 -0.015461
						CHANNELS 3 Zrotation Yrotation Xrotation
						JOINT left_elbow
						{
							OFFSET 0.254123 -0.072151 -0.042459
							CHANNELS 3 Zrotation Yrotation Xrotation
							JOINT left_wrist
							{
								OFFSET 0.251987 0.023221 -0.002472
								CHANNELS 3 Zrotation Yrotation Xrotation
								JOINT left_index_1
								{
									OFFSET 0.101902 -0.008688 0.019351
									CHANNELS 3 Zrotation Yrotation Xrotation
									JOINT left_index_2
									{
										OFFSET 0.030149 -0.011154 0.001151
										CHANNELS 3 Zrotation Yrotation Xrotation
										JOINT left_index_3
										{
											OFFSET 0.006504 -0.021577 -0.002433
											CHANNELS 3 Zrotation Yrotation Xrotation
											End Site
											{
												OFFSET 0.000000 0.000000 0.000000
											}
										}
									}
								}
								JOINT left_middle_1
								{
									OFFSET 0.109398 -0.006328 -0.003981
									CHANNELS 3 Zrotation Yrotation Xrotation
									JOINT left_middle_2
									{
										OFFSET 0.026472 -0.015218 -0.004641
										CHANNELS 3 Zrotation Yrotation Xrotation
										JOINT left_middle_3
										{
											OFFSET 0.005022 -0.023347 -0.001911
											CHANNELS 3 Zrotation Yrotation Xrotation
											End Site
											{
												OFFSET 0.000000 0.000000 0.000000
											}
										}
									}
								}
								JOINT left_pinky_1
								{
									OFFSET 0.084047 -0.014539 -0.043750
									CHANNELS 3 Zrotation Yrotation Xrotation
									JOINT left_pinky_2
									{
										OFFSET 0.012124 -0.014448 -0.005375
										CHANNELS 3 Zrotation Yrotation Xrotation
										JOINT left_pinky_3
										{
											OFFSET 0.003798 -0.018853 0.000167
											CHANNELS 3 Zrotation Yrotation Xrotation
											End Site
											{
												OFFSET 0.000000 0.000000 0.000000
											}
										}
									}
								}
								JOINT left_ring_1
								{
									OFFSET 0.097444 -0.009268 -0.027345
									CHANNELS 3 Zrotation Yrotation Xrotation
									JOINT left_ring_2
									{
										OFFSET 0.023561 -0.016057 -0.001895
										CHANNELS 3 Zrotation Yrotation Xrotation
										JOINT left_ring_3
										{
											OFFSET 0.004257 -0.023548 0.000814
											CHANNELS 3 Zrotation Yrotation Xrotation
											End Site
											{
												OFFSET 0.000000 0.000000 0.000000
											}
										}
									}
								}
								JOINT left_thumb_1
								{
									OFFSET 0.040636 -0.017977 0.025611
									CHANNELS 3 Zrotation Yrotation Xrotation
									JOINT left_thumb_2
									{
										OFFSET 0.021637 -0.017639 0.011623
										CHANNELS 3 Zrotation Yrotation Xrotation
										JOINT left_thumb_3
										{
											OFFSET 0.024002 -0.008356 0.006548
											CHANNELS 3 Zrotation Yrotation Xrotation
											End Site
											{
												OFFSET 0.000000 0.000000 0.000000
											}
										}
									}
								}
							}
						}
					}
				}
				JOINT right_collar
				{
					OFFSET -0.047695 0.084339 -0.013400
					CHANNELS 3 Zrotation Yrotation Xrotation
					JOINT right_shoulder
					{
						OFFSET -0.102578 0.053524 -0.012669
						CHANNELS 3 Zrotation Yrotation Xrotation
						JOINT right_elbow
						{
							OFFSET -0.271150 -0.036492 -0.026467
							CHANNELS 3 Zrotation Yrotation Xrotation
							JOINT right_wrist
							{
								OFFSET -0.249267 -0.004533 -0.015325
								CHANNELS 3 Zrotation Yrotation Xrotation
								JOINT right_index_1
								{
									OFFSET -0.099881 -0.011783 0.019600
									CHANNELS 3 Zrotation Yrotation Xrotation
									JOINT right_index_2
									{
										OFFSET -0.030148 -0.011154 0.001151
										CHANNELS 3 Zrotation Yrotation Xrotation
										JOINT right_index_3
										{
											OFFSET -0.006505 -0.021577 -0.002432
											CHANNELS 3 Zrotation Yrotation Xrotation
											End Site
											{
												OFFSET 0.000000 0.000000 0.000000
											}
										}
									}
								}
								JOINT right_middle_1
								{
									OFFSET -0.107376 -0.009422 -0.003734
									CHANNELS 3 Zrotation Yrotation Xrotation
									JOINT right_middle_2
									{
										OFFSET -0.026472 -0.015218 -0.004641
										CHANNELS 3 Zrotation Yrotation Xrotation
										JOINT right_middle_3
										{
											OFFSET -0.005022 -0.023347 -0.001911
											CHANNELS 3 Zrotation Yrotation Xrotation
											End Site
											{
												OFFSET 0.000000 0.000000 0.000000
											}
										}
									}
								}
								JOINT right_pinky_1
								{
									OFFSET -0.082027 -0.017634 -0.043503
									CHANNELS 3 Zrotation Yrotation Xrotation
									JOINT right_pinky_2
									{
										OFFSET -0.012123 -0.014448 -0.005374
										CHANNELS 3 Zrotation Yrotation Xrotation
										JOINT right_pinky_3
										{
											OFFSET -0.003798 -0.018852 0.000167
											CHANNELS 3 Zrotation Yrotation Xrotation
											End Site
											{
												OFFSET 0.000000 0.000000 0.000000
											}
										}
									}
								}
								JOINT right_ring_1
								{
									OFFSET -0.095423 -0.012362 -0.027099
									CHANNELS 3 Zrotation Yrotation Xrotation
									JOINT right_ring_2
									{
										OFFSET -0.023561 -0.016057 -0.001895
										CHANNELS 3 Zrotation Yrotation Xrotation
										JOINT right_ring_3
										{
											OFFSET -0.004257 -0.023548 0.000816
											CHANNELS 3 Zrotation Yrotation Xrotation
											End Site
											{
												OFFSET 0.000000 0.000000 0.000000
											}
										}
									}
								}
								JOINT right_thumb_1
								{
									OFFSET -0.038613 -0.021074 0.025861
									CHANNELS 3 Zrotation Yrotation Xrotation
									JOINT right_thumb_2
									{
										OFFSET -0.021636 -0.017639 0.011623
										CHANNELS 3 Zrotation Yrotation Xrotation
										JOINT right_thumb_3
										{
											OFFSET -0.024004 -0.008353 0.006547
											CHANNELS 3 Zrotation Yrotation Xrotation
											End Site
											{
												OFFSET 0.000000 0.000000 0.000000
											}
										}
									}
								}
							}
						}
					}
				}
			}
		}
	}
}
MOTION
Frames: 4
Frame Time: 0.050000
-0.004567 0.948515 0.780640 41.132694 72.636712 38.865127 -12.973077 0.726433 14.228035 -24.349350 -22.349897 -22.729243 34.804191 27.008867 71.245825 0.000000 0.000000 0.000000 12.461737 -1.378049 -19.506000 -37.208550 -1.595634 18.446203 63.990629 -46.139323 66.852823 0.000000 0.000000 0.000000 5.838719 -1.360146 12.163132 -41.841155 -13.919835 -28.508528 35.852091 28.859588 38.001519 -5.822951 -2.570395 -16.260244 0.000000 0.000000 0.000000 33.526820 32.230212 -41.084351 -17.011345 -3.387975 -10.181200 -29.462825 -30.507797 -0.891216 5.633838 -6.478904 32.934476 -16.938058 4.684135 -1.074564 21.898052 -0.261549 8.430031 0.000000 0.000000 0.000000 -4.456448 -2.392305 -1.832732 4.960296 4.791611 10.813182 0.000000 0.000000 0.000000 37.865237 -10.777790 -6.338510 -18.056127 12.947136 8.471744 0.000000 0.000000 0.000000 5.748273 0.908411 -0.234588 -12.978684 7.564711 2.932506 0.000000 0.000000 0.000000 -0.643640 20.479242 12.744128 -9.766331 -6.248302 1.338558 0.000000 0.000000 0.000000 -88.339287 17.983137 63.468183 -56.048997 -21.739295 38.959145 28.865695 -16.460532 -0.234501 -4.006065 -4.737239 38.176386 13.261877 -27.885052 8.052533 -46.668714 6.083113 7.119304 0.000000 0.000000 0.000000 -2.487028 -4.979967 3.485010 -30.882770 1.401332 -8.128440 0.000000 0.000000 0.000000 -66.811995 20.265732 -20.160386 -36.499797 -0.092549 3.172125 0.000000 0.000000 0.000000 -29.861183 7.768758 -5.714757 -39.518985 -8.883241 -36.369467 0.000000 0.000000 0.000000 -24.759749 -37.412244 41.311169 16.533120 13.307457 1.710784 0.000000 0.000000 0.000000 
-0.009396 0.948354 0.791199 58.010130 77.949690 54.900006 -13.573541 0.418230 14.062860 -25.213796 -20.878586 -16.976465 36.088330 26.392649 64.662385 0.000000 0.000000 0.000000 12.992953 -1.721452 -18.965020 -36.034979 -2.197274 20.538681 68.598622 -43.756152 60.650676 0.000000 0.000000 0.000000 5.674913 -1.340332 11.764735 -41.067513 -12.636604 -25.424764 37.467570 29.530136 37.030638 -5.647311 -2.672058 -14.445998 0.000000 0.000000 0.000000 30.377398 25.726392 -40.779228 -17.467064 -8.477968 -11.682320 -24.000263 -29.691807 -2.291221 6.815945 -7.685627 26.876647 -11.235674 0.746888 -0.951943 16.580617 -1.834809 3.012230 0.000000 0.000000 0.000000 -4.432224 -3.964243 -2.484678 5.158741 0.836032 3.788282 0.000000 0.000000 0.000000 27.929492 -14.429515 -7.915304 -14.702210 8.079855 3.311443 0.000000 0.000000 0.000000 4.025724 -2.488475 -1.513626 -6.252015 2.121761 -2.059836 0.000000 0.000000 0.000000 2.194313 14.533920 9.562248 -11.858235 -4.829504 2.626760 0.000000 0.000000 0.000000 -83.564539 18.201067 67.370889 -57.349421 -18.699352 37.887345 25.953621 -17.725250 0.011793 -2.167612 -6.602345 36.924462 15.788387 -27.171558 7.724270 -47.860681 6.479766 11.321690 0.000000 0.000000 0.000000 -2.027122 -6.468955 4.288240 -31.468651 2.684002 7.911260 0.000000 0.000000 0.000000 -65.242457 20.378380 -18.011931 -38.496795 0.633473 5.180819 0.000000 0.000000 0.000000 -28.548589 5.859245 -3.315631 -46.889564 -8.807723 -34.847355 0.000000 0.000000 0.000000 -23.148614 -37.672227 41.227610 16.324166 12.905316 1.592697 0.000000 0.000000 0.000000 
-0.013989 0.946903 0.804398 72.652963 79.139054 68.931120 -16.794516 0.332105 14.475339 -22.063953 -16.882283 -14.116056 38.722556 26.277806 56.951888 0.000000 0.000000 0.000000 13.133908 -1.876521 -18.666055 -35.743204 -2.573895 21.421695 70.486494 -42.623033 58.043554 0.000000 0.000000 0.000000 4.428979 -1.014001 11.534723 -40.310299 -11.752297 -23.719656 38.141160 30.609737 36.610106 -4.543509 -2.218145 -13.959835 0.000000 0.000000 0.000000 29.145117 22.586981 -41.978618 -19.031081 -11.113062 -13.284144 -20.531660 -31.444222 -3.038334 8.526292 -9.255669 23.241286 -10.881716 -0.684002 -1.176459 17.271313 -3.059102 0.534777 0.000000 0.000000 0.000000 -3.266548 -6.333636 -3.397277 5.523800 -0.190350 2.053689 0.000000 0.000000 0.000000 24.137653 -16.356395 -9.081777 -15.114444 7.140698 1.571606 0.000000 0.000000 0.000000 1.408970 -4.219092 -2.284190 -3.995906 0.237271 -4.317881 0.000000 0.000000 0.000000 2.237505 12.163398 8.133119 -11.530893 -5.180705 2.390490 0.000000 0.000000 0.000000 -78.334936 18.708587 69.728756 -60.488672 -17.281617 40.526954 28.764691 -18.439252 -0.061343 -0.975290 -4.668294 37.121186 17.407821 -24.614514 6.548702 -46.389922 5.875789 11.881210 0.000000 0.000000 0.000000 -0.984451 -5.123178 3.165224 -29.254683 1.929977 25.150222 0.000000 0.000000 0.000000 -65.521419 20.294463 -19.053994 -38.149083 1.606214 10.877020 0.000000 0.000000 0.000000 -28.784055 4.336661 -1.575382 -48.240430 -7.290949 -33.206378 0.000000 0.000000 0.000000 -22.463813 -38.347029 41.652697 15.531270 13.752922 1.077082 0.000000 0.000000 0.000000 
-0.020702 0.945614 0.814957 75.575538 80.265466 72.062671 -19.230300 0.191630 14.707476 -15.907378 -12.515760 -14.360014 39.304134 25.107604 50.882701 0.000000 0.000000 0.000000 14.973475 -2.000616 -19.276025 -35.847353 -2.647288 21.369001 70.015345 -41.587018 57.793614 0.000000 0.000000 0.000000 7.510149 -1.857558 10.748432 -41.486348 -11.903481 -22.950869 38.494523 31.638049 36.849827 -6.401454 -3.205320 -12.634828 0.000000 0.000000 0.000000 27.347192 21.584955 -42.989355 -20.573749 -11.005989 -14.016499 -21.208627 -36.039572 -3.169213 9.697389 -10.804471 24.144909 -17.250808 0.157261 -1.453659 4.713972 3.146940 5.957803 0.000000 0.000000 0.000000 -2.449645 -5.531996 -2.900622 3.293824 0.307252 1.785032 0.000000 0.000000 0.000000 23.801190 -14.979195 -7.732806 -17.629682 3.606560 -4.407933 0.000000 0.000000 0.000000 0.290811 -2.833959 -1.743535 -13.130896 -0.613809 -7.534448 0.000000 0.000000 0.000000 1.744581 14.944525 10.455660 -12.333915 -5.483036 2.583907 0.000000 0.000000 0.000000 -76.375138 19.528542 71.158672 -63.898273 -16.224486 43.659338 33.712670 -19.212342 -0.438051 3.168085 -0.374842 39.091904 16.542186 -22.204966 5.645147 -47.635449 6.559193 15.577330 0.000000 0.000000 0.000000 -3.333804 -3.384147 2.622363 -29.783636 2.325379 29.955359 0.000000 0.000000 0.000000 -66.371847 19.852991 -20.962612 -37.388267 1.506249 11.578348 0.000000 0.000000 0.000000 -29.185059 5.839356 -3.591869 -50.418744 -5.337902 -23.931343 0.000000 0.000000 0.000000 -26.298085 -40.157430 45.155793 14.929899 16.199694 0.368586 0.000000 0.000000 0.000000 
